<svg width="100%" height="100%" viewBox="0 0 39 39" fill="currentColor" xmlns="http://www.w3.org/2000/svg">
<path d="M19.3077 0.6875C24.4132 0.6875 29.3095 2.66953 32.9195 6.19755C36.5296 9.72558 38.5577 14.5106 38.5577 19.5C38.5577 24.4894 36.5296 29.2744 32.9195 32.8024C29.3095 36.3305 24.4132 38.3125 19.3077 38.3125C14.2023 38.3125 9.30601 36.3305 5.69593 32.8024C2.08586 29.2744 0.0577393 24.4894 0.0577393 19.5C0.0577393 14.5106 2.08586 9.72558 5.69593 6.19755C9.30601 2.66953 14.2023 0.6875 19.3077 0.6875ZM19.3077 35.625C23.6838 35.625 27.8806 33.9261 30.975 30.9021C34.0694 27.8781 35.8077 23.7766 35.8077 19.5C35.8077 15.2234 34.0694 11.1219 30.975 8.0979C27.8806 5.07388 23.6838 3.375 19.3077 3.375C14.9317 3.375 10.7348 5.07388 7.64048 8.0979C4.54613 11.1219 2.80774 15.2234 2.80774 19.5C2.80774 23.7766 4.54613 27.8781 7.64048 30.9021C10.7348 33.9261 14.9317 35.625 19.3077 35.625ZM21.3702 28.2344C21.3702 28.769 21.1529 29.2816 20.7661 29.6596C20.3794 30.0376 19.8547 30.25 19.3077 30.25C18.7607 30.25 18.2361 30.0376 17.8493 29.6596C17.4625 29.2816 17.2452 28.769 17.2452 28.2344C17.2452 27.6998 17.4625 27.1871 17.8493 26.8091C18.2361 26.4311 18.7607 26.2188 19.3077 26.2188C19.8547 26.2188 20.3794 26.4311 20.7661 26.8091C21.1529 27.1871 21.3702 27.6998 21.3702 28.2344ZM19.3077 8.75C19.6724 8.75 20.0222 8.89157 20.28 9.14358C20.5379 9.39558 20.6827 9.73737 20.6827 10.0938V22.1875C20.6827 22.5439 20.5379 22.8857 20.28 23.1377C20.0222 23.3897 19.6724 23.5312 19.3077 23.5312C18.9431 23.5312 18.5933 23.3897 18.3355 23.1377C18.0776 22.8857 17.9327 22.5439 17.9327 22.1875V10.0938C17.9327 9.73737 18.0776 9.39558 18.3355 9.14358C18.5933 8.89157 18.9431 8.75 19.3077 8.75Z" fill="currentColor"/>
</svg>
