<svg viewBox="0 0 40 40" fill="none" xmlns="http://www.w3.org/2000/svg" stroke="currentColor">
<path d="M28.3334 13.3333V9.99999C28.3334 6.85666 28.3334 5.28666 27.3567 4.30999C26.38 3.33333 24.81 3.33333 21.6667 3.33333H18.3334C15.19 3.33333 13.62 3.33333 12.6434 4.30999C11.6667 5.28666 11.6667 6.85666 11.6667 9.99999V13.3333M18.5767 20.0383C19.21 18.9017 19.5267 18.3333 20 18.3333C20.4734 18.3333 20.79 18.9 21.4234 20.0383L21.5867 20.3317C21.7667 20.655 21.8567 20.815 21.9967 20.9217C22.1384 21.0283 22.3134 21.0683 22.6634 21.1467L22.98 21.22C24.21 21.4983 24.825 21.6367 24.9717 22.1067C25.1184 22.5767 24.6984 23.0683 23.86 24.0483L23.6434 24.3017C23.405 24.58 23.285 24.7183 23.2317 24.8917C23.1784 25.065 23.1967 25.25 23.2317 25.6217L23.265 25.96C23.3917 27.2683 23.455 27.9233 23.0734 28.2133C22.69 28.5033 22.1134 28.2383 20.9617 27.7083L20.665 27.5717C20.3367 27.4217 20.1734 27.345 20 27.345C19.8267 27.345 19.6634 27.4217 19.335 27.5717L19.0384 27.7083C17.8867 28.24 17.31 28.5033 16.9267 28.2133C16.5434 27.9233 16.6084 27.2683 16.735 25.96L16.7684 25.6217C16.8034 25.25 16.8217 25.065 16.7684 24.8917C16.715 24.7183 16.595 24.58 16.3567 24.3017L16.14 24.0483C15.3017 23.0683 14.8817 22.5783 15.0284 22.1067C15.175 21.6367 15.79 21.4983 17.02 21.22L17.3367 21.1467C17.6867 21.0683 17.8617 21.03 18.0034 20.9217C18.1434 20.815 18.2334 20.655 18.4134 20.3317L18.5767 20.0383Z" stroke-width="4"/>
<path d="M20 36.6667C27.3638 36.6667 33.3334 30.6971 33.3334 23.3333C33.3334 15.9695 27.3638 10 20 10C12.6362 10 6.66669 15.9695 6.66669 23.3333C6.66669 30.6971 12.6362 36.6667 20 36.6667Z" stroke-width="4"/>
</svg>
