<svg viewBox="0 0 40 40" fill="none" xmlns="http://www.w3.org/2000/svg" stroke="currentColor">
<path d="M28.3334 13.3333V9.99999C28.3334 6.85666 28.3334 5.28666 27.3567 4.30999C26.38 3.33333 24.81 3.33333 21.6667 3.33333H18.3334C15.19 3.33333 13.62 3.33333 12.6434 4.30999C11.6667 5.28666 11.6667 6.85666 11.6667 9.99999V13.3333" stroke-width="4"/>
<path d="M20 36.6667C27.3638 36.6667 33.3334 30.6971 33.3334 23.3333C33.3334 15.9695 27.3638 10 20 10C12.6362 10 6.66669 15.9695 6.66669 23.3333C6.66669 30.6971 12.6362 36.6667 20 36.6667Z" stroke-width="4"/>

<circle cx="20" cy="23.3333" r="8.33333" stroke="currentColor" stroke-width="4" fill="none"/>
<line x1="14.1667" y1="29.1667" x2="25.8333" y2="17.5" stroke="currentColor" stroke-width="4" stroke-linecap="round"/>
</svg>
