<svg width="24" height="24" viewBox="0 0 24 24" fill="none" xmlns="http://www.w3.org/2000/svg">
<path d="M15 9.00001L9 15M15 15H14.991M9.009 9.00001H9M7.832 21.348L7.313 20.658C6.858 20.051 5.89 20.1 5.506 20.748C4.966 21.66 3.5 21.297 3.5 20.252V3.74801C3.5 2.70301 4.966 2.34001 5.506 3.25101C5.89 3.90001 6.858 3.94901 7.313 3.34201L7.832 2.65201C8.485 1.78201 9.849 1.78201 10.502 2.65201L10.583 2.76101C11.276 3.68301 12.723 3.68301 13.417 2.76101L13.498 2.65201C14.151 1.78201 15.515 1.78201 16.168 2.65201L16.687 3.34201C17.142 3.94901 18.11 3.90001 18.494 3.25201C19.034 2.34101 20.5 2.70301 20.5 3.74801V20.252C20.5 21.297 19.034 21.66 18.494 20.749C18.11 20.1 17.142 20.051 16.687 20.658L16.169 21.348C15.515 22.218 14.151 22.218 13.499 21.348L13.417 21.239C12.724 20.317 11.277 20.317 10.583 21.239L10.502 21.348C9.849 22.218 8.485 22.218 7.832 21.348Z" stroke="#927F71" stroke-width="1.5" stroke-linecap="round" stroke-linejoin="round"/>
</svg>
