<svg width="20" height="19" viewBox="0 0 20 19" fill="none" xmlns="http://www.w3.org/2000/svg">
<path d="M9.99999 15.7146L5.50416 18.4229C5.30555 18.5493 5.09791 18.6035 4.88124 18.5854C4.66457 18.5674 4.47499 18.4951 4.31249 18.3687C4.14999 18.2424 4.0236 18.0845 3.93332 17.8953C3.84305 17.7061 3.82499 17.4938 3.87916 17.2583L5.07082 12.1396L1.08957 8.69999C0.909018 8.53749 0.796351 8.35224 0.751573 8.14424C0.706796 7.93624 0.720157 7.7333 0.791657 7.53541C0.863157 7.33752 0.97149 7.17502 1.11666 7.04791C1.26182 6.9208 1.46043 6.83955 1.71249 6.80416L6.96666 6.34374L8.99791 1.52291C9.08818 1.30624 9.2283 1.14374 9.41824 1.03541C9.60819 0.927076 9.8021 0.87291 9.99999 0.87291C10.1979 0.87291 10.3918 0.927076 10.5817 1.03541C10.7717 1.14374 10.9118 1.30624 11.0021 1.52291L13.0333 6.34374L18.2875 6.80416C18.5403 6.84027 18.7389 6.92152 18.8833 7.04791C19.0278 7.1743 19.1361 7.3368 19.2083 7.53541C19.2805 7.73402 19.2943 7.93733 19.2495 8.14533C19.2047 8.35333 19.0917 8.53822 18.9104 8.69999L14.9292 12.1396L16.1208 17.2583C16.175 17.493 16.1569 17.7054 16.0667 17.8953C15.9764 18.0853 15.85 18.2431 15.6875 18.3687C15.525 18.4944 15.3354 18.5666 15.1187 18.5854C14.9021 18.6042 14.6944 18.55 14.4958 18.4229L9.99999 15.7146Z" fill="#CBD2A9"/>
</svg>
