<svg width="100%" height="100%" viewBox="0 0 24 27" fill="none" xmlns="http://www.w3.org/2000/svg">
<path d="M3.7055 0.300016C2.6759 0.300016 1.76675 1.02272 1.577 2.06222C1.3328 3.41192 0.95 5.81432 0.95 7.72502C0.95 9.75617 1.9994 11.5415 3.58175 12.5694C4.0289 12.8615 4.25 13.2377 4.25 13.5594V14.2359C4.25 14.2656 4.24835 14.2953 4.24505 14.325C4.2005 14.754 3.9959 16.6829 3.80285 18.6662C3.6131 20.6214 3.425 22.7087 3.425 23.4C3.425 24.2752 3.77268 25.1146 4.39155 25.7335C5.01042 26.3523 5.84979 26.7 6.725 26.7C7.60021 26.7 8.43958 26.3523 9.05845 25.7335C9.67732 25.1146 10.025 24.2752 10.025 23.4C10.025 22.707 9.8369 20.6214 9.64715 18.6662C9.50608 17.219 9.35868 15.7725 9.20495 14.3267L9.2 14.2359V13.5594C9.2 13.236 9.4211 12.8598 9.86825 12.5694C10.676 12.0453 11.3399 11.3276 11.7995 10.4815C12.2592 9.63546 12.5 8.68788 12.5 7.72502C12.5 5.81432 12.1172 3.41192 11.873 2.06222C11.7813 1.56547 11.5178 1.11679 11.1287 0.794647C10.7396 0.472509 10.2496 0.297424 9.7445 0.300016C9.1835 0.300016 8.672 0.509566 8.2859 0.854416C7.84472 0.495824 7.29353 0.300054 6.725 0.300016C6.13265 0.300016 5.5898 0.507916 5.1641 0.854416C4.76348 0.496195 4.24292 0.298737 3.7055 0.300016ZM5.9 2.77502C5.9 2.55621 5.98692 2.34637 6.14164 2.19165C6.29635 2.03694 6.5062 1.95002 6.725 1.95002C6.9438 1.95002 7.15365 2.03694 7.30836 2.19165C7.46308 2.34637 7.55 2.55621 7.55 2.77502V7.72502C7.55 7.94382 7.63692 8.15366 7.79164 8.30838C7.94635 8.4631 8.1562 8.55002 8.375 8.55002C8.5938 8.55002 8.80365 8.4631 8.95836 8.30838C9.11308 8.15366 9.2 7.94382 9.2 7.72502V2.49452C9.2 2.42301 9.21408 2.35221 9.24145 2.28614C9.26881 2.22008 9.30892 2.16006 9.35948 2.1095C9.41004 2.05893 9.47007 2.01883 9.53613 1.99146C9.60219 1.9641 9.67299 1.95002 9.7445 1.95002C10.0035 1.95002 10.2065 2.12822 10.2494 2.35757C10.4919 3.69902 10.85 5.97437 10.85 7.72502C10.8501 8.41313 10.678 9.09032 10.3495 9.69494C10.021 10.2996 9.54638 10.8124 8.969 11.1867C8.24465 11.657 7.55 12.4836 7.55 13.5594V14.2359C7.55 14.3239 7.5544 14.4119 7.5632 14.4999C7.6094 14.9256 7.81235 16.8495 8.0054 18.8262C8.2001 20.831 8.375 22.811 8.375 23.4C8.375 23.8376 8.20116 24.2573 7.89173 24.5667C7.58229 24.8762 7.16261 25.05 6.725 25.05C6.28739 25.05 5.86771 24.8762 5.55827 24.5667C5.24884 24.2573 5.075 23.8376 5.075 23.4C5.075 22.811 5.2499 20.831 5.4446 18.8262C5.63765 16.8495 5.8406 14.9256 5.8868 14.4999C5.8956 14.4119 5.9 14.3239 5.9 14.2359V13.5594C5.9 12.4836 5.20535 11.657 4.481 11.1867C3.90362 10.8124 3.42905 10.2996 3.10052 9.69494C2.77198 9.09032 2.59992 8.41313 2.6 7.72502C2.6 5.97602 2.95805 3.69902 3.2006 2.35757C3.2232 2.2407 3.28649 2.13563 3.37923 2.06101C3.47197 1.9864 3.58816 1.94707 3.70715 1.95002C3.85127 1.95045 3.98935 2.00801 4.0911 2.11008C4.19286 2.21214 4.25 2.35039 4.25 2.49452V7.72502C4.25 7.94382 4.33692 8.15366 4.49164 8.30838C4.64635 8.4631 4.8562 8.55002 5.075 8.55002C5.2938 8.55002 5.50364 8.4631 5.65836 8.30838C5.81308 8.15366 5.9 7.94382 5.9 7.72502V2.77502ZM14.15 7.72502C14.15 5.75578 14.9323 3.86721 16.3247 2.47475C17.7172 1.08229 19.6058 0.300016 21.575 0.300016C21.7938 0.300016 22.0036 0.386936 22.1584 0.541653C22.3131 0.696371 22.4 0.906213 22.4 1.12502V12.6387L22.433 13.0083C22.5616 14.4908 22.687 15.9736 22.8092 17.4567C23.0138 19.9433 23.225 22.6724 23.225 23.4C23.225 24.2752 22.8773 25.1146 22.2585 25.7335C21.6396 26.3523 20.8002 26.7 19.925 26.7C19.0498 26.7 18.2104 26.3523 17.5915 25.7335C16.9727 25.1146 16.625 24.2752 16.625 23.4C16.625 22.674 16.8362 19.9433 17.0408 17.4567C17.1431 16.2011 17.247 14.9867 17.3246 14.0874L17.3741 13.5H16.625C15.9686 13.5 15.3391 13.2393 14.8749 12.7751C14.4108 12.311 14.15 11.6814 14.15 11.025V7.72502ZM19.0967 12.7476L19.0621 13.1519L18.968 14.2293C18.8905 15.1269 18.7865 16.338 18.6842 17.592C18.4763 20.1281 18.275 22.7598 18.275 23.4C18.275 23.8376 18.4488 24.2573 18.7583 24.5667C19.0677 24.8762 19.4874 25.05 19.925 25.05C20.3626 25.05 20.7823 24.8762 21.0917 24.5667C21.4012 24.2573 21.575 23.8376 21.575 23.4C21.575 22.7598 21.3737 20.1281 21.1658 17.592C21.0434 16.1117 20.9174 14.6316 20.7879 13.1519L20.7533 12.7493V12.7476L20.75 12.675V2.00777C19.3753 2.20619 18.1182 2.89341 17.209 3.94347C16.2999 4.99353 15.7996 6.33607 15.8 7.72502V11.025C15.8 11.2438 15.8869 11.4537 16.0416 11.6084C16.1964 11.7631 16.4062 11.85 16.625 11.85H18.275C18.3895 11.85 18.5026 11.8739 18.6074 11.92C18.7121 11.9661 18.8061 12.0335 18.8834 12.1179C18.9607 12.2024 19.0196 12.3019 19.0563 12.4103C19.093 12.5188 19.1068 12.6336 19.0967 12.7476Z" fill="#927F71"/>
</svg>
