<svg width="100%" height="100%" viewBox="0 0 39 39" fill="none" xmlns="http://www.w3.org/2000/svg">
<path fill-rule="evenodd" clip-rule="evenodd" d="M30.7509 32.0775C27.6602 34.8505 23.6524 36.3813 19.5 36.375C10.1803 36.375 2.625 28.8197 2.625 19.5C2.625 15.0581 4.34062 11.0175 7.14656 8.00344L9.93094 10.7878C10.1078 10.9586 10.3446 11.0531 10.5904 11.0509C10.8362 11.0488 11.0713 10.9502 11.2451 10.7764C11.419 10.6026 11.5176 10.3674 11.5197 10.1216C11.5218 9.87582 11.4273 9.639 11.2566 9.46219L8.49844 6.70406C11.5566 4.06706 15.4619 2.6191 19.5 2.625C28.8197 2.625 36.375 10.1803 36.375 19.5C36.375 23.8219 34.7494 27.7659 32.0775 30.7509L26.6456 25.32C26.8803 24.635 27.0001 23.9159 27 23.1919V21.375C27 21.1715 26.9337 20.9736 26.8113 20.811C26.6888 20.6485 26.5168 20.5302 26.3212 20.4741C26.7677 19.5703 27 18.5758 27 17.5678V15.75C27 15.5928 26.9605 15.4382 26.8852 15.3003C26.8098 15.1624 26.701 15.0457 26.5687 14.9608C26.4364 14.876 26.2849 14.8257 26.1282 14.8147C25.9714 14.8037 25.8144 14.8323 25.6716 14.8978L25.6153 14.9231C25.9107 14.1646 26.0623 13.3577 26.0625 12.5437V11.0625C26.0624 10.9106 26.0255 10.7611 25.9548 10.6267C25.8841 10.4923 25.7819 10.377 25.6568 10.2909C25.5317 10.2047 25.3876 10.1503 25.2368 10.1322C25.0861 10.114 24.9332 10.1328 24.7912 10.1869L22.7887 10.9491C22.71 10.9788 22.6319 11.0101 22.5544 11.0428C22.5191 9.35716 21.9002 7.73594 20.8031 6.45563L20.2125 5.76469C20.1245 5.66177 20.0152 5.57914 19.8922 5.52248C19.7692 5.46583 19.6354 5.43649 19.5 5.43649C19.3646 5.43649 19.2308 5.46583 19.1078 5.52248C18.9848 5.57914 18.8755 5.66177 18.7875 5.76469L18.1969 6.45469C17.0991 7.73537 16.4798 9.35733 16.4447 11.0437C16.3675 11.011 16.2897 10.9798 16.2113 10.95L14.2088 10.1859C14.0668 10.1318 13.9138 10.1131 13.7629 10.1312C13.6121 10.1494 13.4679 10.204 13.3428 10.2902C13.2177 10.3765 13.1155 10.4918 13.0449 10.6264C12.9743 10.7609 12.9374 10.9106 12.9375 11.0625V12.5437C12.9375 13.3744 13.0941 14.1788 13.3837 14.9231L13.3284 14.8978C13.1856 14.8323 13.0286 14.8037 12.8718 14.8147C12.7151 14.8257 12.5636 14.876 12.4313 14.9608C12.299 15.0457 12.1902 15.1624 12.1148 15.3003C12.0395 15.4382 12 15.5928 12 15.75V17.5678C12 18.5758 12.2323 19.5703 12.6788 20.4741C12.4832 20.5302 12.3112 20.6485 12.1887 20.811C12.0663 20.9736 12 21.1715 12 21.375V23.1928C12.0003 24.4483 12.3607 25.6775 13.0385 26.7343C13.7163 27.7912 14.6831 28.6314 15.8241 29.1553L18.5625 30.4144V32.625H20.4375V30.4134L23.1759 29.1562C24.1944 28.6886 25.0762 27.9679 25.7372 27.0628L30.7509 32.0775ZM38.25 19.5C38.25 29.8556 29.8556 38.25 19.5 38.25C9.14438 38.25 0.75 29.8556 0.75 19.5C0.75 9.14438 9.14438 0.75 19.5 0.75C29.8556 0.75 38.25 9.14438 38.25 19.5ZM19.5 7.82062C20.0047 8.45299 20.3611 9.19052 20.543 9.97889C20.7249 10.7673 20.7276 11.5864 20.5509 12.3759C20.1441 12.7716 19.7916 13.2169 19.5 13.7016C19.2083 13.2162 18.8551 12.7706 18.4491 12.3759C18.2724 11.5864 18.2751 10.7673 18.457 9.97889C18.6389 9.19052 18.9953 8.45299 19.5 7.82062ZM18.5625 17.2022V17.0822C18.5626 16.1321 18.274 15.2043 17.7349 14.4219C17.1958 13.6396 16.4316 13.0395 15.5438 12.7012L14.8125 12.4228V12.5428C14.8124 13.4929 15.101 14.4207 15.6401 15.2031C16.1792 15.9854 16.9434 16.5855 17.8312 16.9237L18.5625 17.2022ZM20.4375 17.2022L21.1688 16.9237C22.0566 16.5855 22.8208 15.9854 23.3599 15.2031C23.899 14.4207 24.1876 13.4929 24.1875 12.5428V12.4228L23.4562 12.7012C22.5684 13.0395 21.8042 13.6396 21.2651 14.4219C20.726 15.2043 20.4374 16.1321 20.4375 17.0822V17.2022ZM20.4375 21.4753C20.4375 20.1891 21.1875 19.02 22.3556 18.4837L25.125 17.2125V17.5678C25.1249 18.4646 24.8675 19.3425 24.3835 20.0974C23.8994 20.8523 23.209 21.4526 22.3941 21.8269L20.4375 22.725V21.4753ZM15.8316 18.1097C16.6468 18.4841 17.3374 19.0846 17.8215 19.8399C18.3056 20.5952 18.5627 21.4735 18.5625 22.3706V22.7269L16.6059 21.8278C15.791 21.4535 15.1006 20.8533 14.6165 20.0984C14.1325 19.3434 13.8751 18.4655 13.875 17.5688V17.2125L15.8316 18.1097ZM18.5625 28.35V27.9956C18.5626 27.0987 18.3053 26.2206 17.8212 25.4655C17.3372 24.7104 16.6466 24.11 15.8316 23.7356L13.875 22.8375V23.1928C13.8751 24.0896 14.1325 24.9675 14.6165 25.7224C15.1006 26.4773 15.791 27.0776 16.6059 27.4519L18.5625 28.35ZM20.4375 28.35L22.3941 27.4519C23.2088 27.0776 23.8992 26.4776 24.3832 25.7228C24.8673 24.9681 25.1247 24.0904 25.125 23.1938V22.8375L22.3556 24.1097C21.7832 24.3724 21.2983 24.7938 20.9583 25.3239C20.6183 25.854 20.4375 26.4705 20.4375 27.1003V28.35Z" fill="#3E7B27"/>
</svg>
