<svg viewBox="0 0 24 24" fill="none" xmlns="http://www.w3.org/2000/svg">
<path fill-rule="evenodd" clip-rule="evenodd" d="M12 21C16.9705 21 21 16.9705 21 12C21 7.0295 16.9705 3 12 3C7.0295 3 3 7.0295 3 12C3 16.9705 7.0295 21 12 21ZM12 22C17.523 22 22 17.523 22 12C22 6.477 17.523 2 12 2C6.477 2 2 6.477 2 12C2 17.523 6.477 22 12 22Z" fill="#85A947"/>
<path fill-rule="evenodd" clip-rule="evenodd" d="M13.8335 6.52202L15 11.087V17.7825C15 18.455 14.4775 19 13.8335 19H10.1665C9.52252 19 9.00002 18.455 9.00002 17.7825V11.087L10.1665 6.52202C10.1665 6.52202 9.58352 6.21702 9.58352 5.60852C9.58352 5.00002 9.87502 5.00002 10.75 5.00002H13.25C14.125 5.00002 14.4165 5.00002 14.4165 5.60852C14.4165 6.21702 13.8335 6.52202 13.8335 6.52202ZM10.1405 10.6625L11.3315 6.00102L11.3285 5.99952H12.6715L12.6685 6.00102L14 11.2125V11.399L13.9735 11.3985C13.7924 11.3908 13.6119 11.3707 13.4335 11.3385C13.067 11.2695 12.8015 11.157 12.6825 11.0455C11.9775 10.3875 11.0425 10.4715 10.5665 10.5605C10.4229 10.5877 10.2808 10.6215 10.1405 10.6625ZM14 12.399V17.5C14 17.6326 13.9473 17.7598 13.8536 17.8536C13.7598 17.9473 13.6326 18 13.5 18H10.5C10.3674 18 10.2402 17.9473 10.1465 17.8536C10.0527 17.7598 10 17.6326 10 17.5V11.7765C10 11.7765 11.3335 11.154 12 11.7765C12.6665 12.399 14 12.399 14 12.399ZM5.14652 4.89652C5.24028 4.80278 5.36743 4.75012 5.50002 4.75012C5.6326 4.75012 5.75975 4.80278 5.85352 4.89652L8.60352 7.64652C8.69459 7.74082 8.74499 7.86712 8.74385 7.99822C8.74271 8.12931 8.69013 8.25472 8.59742 8.34742C8.50472 8.44013 8.37931 8.49271 8.24822 8.49385C8.11712 8.49499 7.99082 8.44459 7.89652 8.35352L5.14652 5.60352C5.05278 5.50975 5.00012 5.3826 5.00012 5.25002C5.00012 5.11743 5.05278 4.99028 5.14652 4.89652Z" fill="#85A947"/>
<path fill-rule="evenodd" clip-rule="evenodd" d="M18.6465 19.3535L14.1465 14.8535L14.8535 14.1465L19.3535 18.6465L18.6465 19.3535Z" fill="#85A947"/>
<path d="M10.5 5.5H13.5V6.5H10.5V5.5Z" fill="#85A947"/>
</svg>
