<svg viewBox="0 0 21 21" fill="none" xmlns="http://www.w3.org/2000/svg">
<path d="M10.625 20.25C15.9407 20.25 20.25 15.9407 20.25 10.625C20.25 5.30926 15.9407 1 10.625 1C5.30926 1 1 5.30926 1 10.625C1 15.9407 5.30926 20.25 10.625 20.25Z" stroke="#123524" stroke-linecap="round" stroke-linejoin="round"/>
<path d="M17.8535 17.1465C18.0487 17.3417 18.0488 17.6583 17.8535 17.8535C17.6583 18.0488 17.3417 18.0487 17.1465 17.8535L15.3525 16.0596C15.606 15.8422 15.8422 15.606 16.0596 15.3525L17.8535 17.1465ZM3.39648 3.39648C3.59175 3.20122 3.90825 3.20122 4.10352 3.39648L6.89648 6.18945C6.6431 6.40674 6.40674 6.6431 6.18945 6.89648L3.39648 4.10352C3.20122 3.90825 3.20122 3.59175 3.39648 3.39648Z" fill="#123524"/>
<path d="M11.75 14.765H12.125V14.015H11.75C11.021 14.015 10.401 13.7595 9.88995 13.2485C9.37995 12.7385 9.12495 12.1187 9.12495 11.3892V11.0142H8.37495V11.3892C8.37495 12.3232 8.70395 13.1192 9.36195 13.7772C10.02 14.4352 10.816 14.7642 11.75 14.7642M10.982 17.0142C9.72345 17.0142 8.65695 16.565 7.78245 15.6665C6.90795 14.768 6.4707 13.6775 6.4707 12.395C6.4707 11.5505 6.60845 10.6912 6.88395 9.81722C7.15995 8.94322 7.51745 8.14772 7.95645 7.43072C8.39545 6.71372 8.8817 6.12697 9.4152 5.67047C9.9487 5.21397 10.4722 4.98572 10.9857 4.98572C11.5022 4.98572 12.0275 5.21122 12.5615 5.66222C13.0955 6.11322 13.5812 6.69697 14.0187 7.41347C14.4562 8.12997 14.8125 8.92822 15.0875 9.80822C15.3625 10.6882 15.5 11.5505 15.5 12.395C15.5 13.6775 15.0617 14.768 14.1852 15.6665C13.3082 16.565 12.2407 17.0142 10.9827 17.0142M10.9857 16.2642C12.0327 16.2642 12.9217 15.8892 13.6527 15.1392C14.3837 14.3892 14.7495 13.4777 14.75 12.4047C14.75 11.6687 14.6305 10.9095 14.3915 10.127C14.1525 9.34397 13.8487 8.62772 13.4802 7.97822C13.1117 7.32872 12.705 6.79272 12.26 6.37022C11.815 5.94772 11.39 5.73622 10.985 5.73572C10.578 5.73572 10.1527 5.94722 9.7092 6.37022C9.2657 6.79322 8.8597 7.33197 8.4912 7.98647C8.1227 8.64097 7.8187 9.35947 7.5792 10.142C7.3397 10.9245 7.2202 11.677 7.2207 12.3995C7.2207 13.475 7.58645 14.388 8.31795 15.1385C9.04945 15.889 9.9387 16.2642 10.9857 16.2642Z" fill="#123524"/>
</svg>
