<svg width="24" height="24" viewBox="0 0 24 24" fill="none" xmlns="http://www.w3.org/2000/svg">
<path d="M12 3.25C11.8011 3.25 11.6103 3.32902 11.4697 3.46967C11.329 3.61032 11.25 3.80109 11.25 4C11.25 4.19891 11.329 4.38968 11.4697 4.53033C11.6103 4.67098 11.8011 4.75 12 4.75C12.9521 4.75 13.8948 4.93753 14.7745 5.30187C15.6541 5.66622 16.4533 6.20025 17.1265 6.87348C17.7997 7.5467 18.3338 8.34593 18.6981 9.22554C19.0625 10.1052 19.25 11.0479 19.25 12C19.25 12.9521 19.0625 13.8948 18.6981 14.7745C18.3338 15.6541 17.7997 16.4533 17.1265 17.1265C16.4533 17.7997 15.6541 18.3338 14.7745 18.6981C13.8948 19.0625 12.9521 19.25 12 19.25C11.8011 19.25 11.6103 19.329 11.4697 19.4697C11.329 19.6103 11.25 19.8011 11.25 20C11.25 20.1989 11.329 20.3897 11.4697 20.5303C11.6103 20.671 11.8011 20.75 12 20.75C14.3206 20.75 16.5462 19.8281 18.1872 18.1872C19.8281 16.5462 20.75 14.3206 20.75 12C20.75 9.67936 19.8281 7.45376 18.1872 5.81282C16.5462 4.17187 14.3206 3.25 12 3.25Z" fill="#927F71"/>
<path d="M10.47 9.53C10.3375 9.38782 10.2654 9.19978 10.2688 9.00548C10.2723 8.81118 10.351 8.62579 10.4884 8.48838C10.6258 8.35097 10.8112 8.27225 11.0055 8.26882C11.1998 8.2654 11.3878 8.33752 11.53 8.47L14.53 11.47C14.6705 11.6106 14.7493 11.8012 14.7493 12C14.7493 12.1988 14.6705 12.3894 14.53 12.53L11.53 15.53C11.4613 15.6037 11.3785 15.6628 11.2865 15.7038C11.1945 15.7448 11.0952 15.7668 10.9945 15.7686C10.8938 15.7704 10.7938 15.7518 10.7004 15.7141C10.607 15.6764 10.5222 15.6203 10.451 15.549C10.3797 15.4778 10.3236 15.393 10.2859 15.2996C10.2482 15.2062 10.2296 15.1062 10.2314 15.0055C10.2332 14.9048 10.2552 14.8055 10.2962 14.7135C10.3372 14.6215 10.3963 14.5387 10.47 14.47L12.19 12.75H4C3.80109 12.75 3.61032 12.671 3.46967 12.5303C3.32902 12.3897 3.25 12.1989 3.25 12C3.25 11.8011 3.32902 11.6103 3.46967 11.4697C3.61032 11.329 3.80109 11.25 4 11.25H12.19L10.47 9.53Z" fill="#927F71"/>
</svg>
