<svg width="100%" height="100%" viewBox="0 0 39 39" fill="none" xmlns="http://www.w3.org/2000/svg">
<path d="M24.3959 18.9347C21.2102 22.3607 18.0245 30.7673 18.0245 30.7673C18.0245 30.7673 13.4735 18.9347 8.92249 16.204" stroke="#123524" stroke-width="1.5" stroke-linecap="round" stroke-linejoin="round"/>
<path d="M30.7965 12.0717L31.3353 17.6786C31.6849 21.3157 28.9579 24.5542 25.3207 24.9056C21.7527 25.2478 18.5197 22.6392 18.1756 19.0712C18.0938 18.2225 18.1799 17.366 18.4291 16.5506C18.6783 15.7352 19.0856 14.9769 19.6279 14.319C20.1702 13.661 20.8368 13.1164 21.5897 12.7161C22.3425 12.3159 23.1668 12.0678 24.0155 11.9861L29.9937 11.4109C30.1875 11.3926 30.3806 11.4519 30.5307 11.5758C30.6809 11.6997 30.7758 11.878 30.7947 12.0717" stroke="#123524" stroke-width="1.5" stroke-linecap="round" stroke-linejoin="round"/>
<path d="M19.8449 38.0489C29.899 38.0489 38.049 29.899 38.049 19.8448C38.049 9.79074 29.899 1.64078 19.8449 1.64078C9.79083 1.64078 1.64087 9.79074 1.64087 19.8448C1.64087 29.899 9.79083 38.0489 19.8449 38.0489Z" stroke="#123524" stroke-width="1.5" stroke-linecap="round" stroke-linejoin="round"/>
</svg>
